<svg xmlns="http://www.w3.org/2000/svg" xmlns:xlink="http://www.w3.org/1999/xlink" width="2000" zoomAndPan="magnify" viewBox="0 0 1500 1499.999933" height="2000" preserveAspectRatio="xMidYMid meet" version="1.0"><defs><filter x="0%" y="0%" width="100%" height="100%" id="e50601d90b"><feColorMatrix values="0 0 0 0 1 0 0 0 0 1 0 0 0 0 1 0 0 0 1 0" color-interpolation-filters="sRGB"/></filter><g/><mask id="aab6443c0a"><g filter="url(#e50601d90b)"><rect x="-150" width="1800" fill="#000000" y="-149.999993" height="1799.99992" fill-opacity="0.5"/></g></mask><clipPath id="ec5eb7b2e3"><rect x="0" width="81" y="0" height="155"/></clipPath><mask id="b6586d626c"><g filter="url(#e50601d90b)"><rect x="-150" width="1800" fill="#000000" y="-149.999993" height="1799.99992" fill-opacity="0.5"/></g></mask><clipPath id="2998050236"><rect x="0" width="81" y="0" height="155"/></clipPath><mask id="cc86bfc025"><g filter="url(#e50601d90b)"><rect x="-150" width="1800" fill="#000000" y="-149.999993" height="1799.99992" fill-opacity="0.5"/></g></mask><clipPath id="be04a6d125"><rect x="0" width="96" y="0" height="155"/></clipPath><mask id="ad203559cd"><g filter="url(#e50601d90b)"><rect x="-150" width="1800" fill="#000000" y="-149.999993" height="1799.99992" fill-opacity="0.5"/></g></mask><clipPath id="403d8c7abf"><rect x="0" width="96" y="0" height="155"/></clipPath><mask id="b6558b865b"><g filter="url(#e50601d90b)"><rect x="-150" width="1800" fill="#000000" y="-149.999993" height="1799.99992" fill-opacity="0.5"/></g></mask><clipPath id="5ad7faa25b"><rect x="0" width="82" y="0" height="155"/></clipPath><mask id="9b469a4ce2"><g filter="url(#e50601d90b)"><rect x="-150" width="1800" fill="#000000" y="-149.999993" height="1799.99992" fill-opacity="0.5"/></g></mask><clipPath id="0cf81e3389"><rect x="0" width="82" y="0" height="155"/></clipPath><mask id="b849e1e40f"><g filter="url(#e50601d90b)"><rect x="-150" width="1800" fill="#000000" y="-149.999993" height="1799.99992" fill-opacity="0.5"/></g></mask><clipPath id="4a51243db4"><rect x="0" width="82" y="0" height="155"/></clipPath><mask id="68c78ca22d"><g filter="url(#e50601d90b)"><rect x="-150" width="1800" fill="#000000" y="-149.999993" height="1799.99992" fill-opacity="0.5"/></g></mask><clipPath id="66c267c339"><rect x="0" width="81" y="0" height="156"/></clipPath><mask id="200881b344"><g filter="url(#e50601d90b)"><rect x="-150" width="1800" fill="#000000" y="-149.999993" height="1799.99992" fill-opacity="0.5"/></g></mask><clipPath id="f564c659b4"><rect x="0" width="81" y="0" height="156"/></clipPath><mask id="bbbd631d74"><g filter="url(#e50601d90b)"><rect x="-150" width="1800" fill="#000000" y="-149.999993" height="1799.99992" fill-opacity="0.5"/></g></mask><clipPath id="9f4ebdac56"><rect x="0" width="77" y="0" height="156"/></clipPath><mask id="ed9818006a"><g filter="url(#e50601d90b)"><rect x="-150" width="1800" fill="#000000" y="-149.999993" height="1799.99992" fill-opacity="0.5"/></g></mask><clipPath id="ef5d38b375"><rect x="0" width="81" y="0" height="156"/></clipPath><mask id="e28d499a32"><g filter="url(#e50601d90b)"><rect x="-150" width="1800" fill="#000000" y="-149.999993" height="1799.99992" fill-opacity="0.5"/></g></mask><clipPath id="44c9e8162f"><rect x="0" width="78" y="0" height="156"/></clipPath><mask id="15b0f822be"><g filter="url(#e50601d90b)"><rect x="-150" width="1800" fill="#000000" y="-149.999993" height="1799.99992" fill-opacity="0.5"/></g></mask><clipPath id="f8ac183666"><rect x="0" width="82" y="0" height="156"/></clipPath><mask id="27da64fed1"><g filter="url(#e50601d90b)"><rect x="-150" width="1800" fill="#000000" y="-149.999993" height="1799.99992" fill-opacity="0.5"/></g></mask><clipPath id="daebf6b618"><rect x="0" width="78" y="0" height="156"/></clipPath><mask id="715cad4a0b"><g filter="url(#e50601d90b)"><rect x="-150" width="1800" fill="#000000" y="-149.999993" height="1799.99992" fill-opacity="0.5"/></g></mask><clipPath id="fc65fe98ef"><rect x="0" width="81" y="0" height="156"/></clipPath><mask id="526d82f3e7"><g filter="url(#e50601d90b)"><rect x="-150" width="1800" fill="#000000" y="-149.999993" height="1799.99992" fill-opacity="0.5"/></g></mask><clipPath id="824cd1e82f"><rect x="0" width="84" y="0" height="156"/></clipPath><mask id="6c1daabead"><g filter="url(#e50601d90b)"><rect x="-150" width="1800" fill="#000000" y="-149.999993" height="1799.99992" fill-opacity="0.5"/></g></mask><clipPath id="fd05101a79"><rect x="0" width="84" y="0" height="156"/></clipPath><mask id="9604606aac"><g filter="url(#e50601d90b)"><rect x="-150" width="1800" fill="#000000" y="-149.999993" height="1799.99992" fill-opacity="0.5"/></g></mask><clipPath id="0d02f22cef"><rect x="0" width="81" y="0" height="156"/></clipPath><mask id="d1f5481325"><g filter="url(#e50601d90b)"><rect x="-150" width="1800" fill="#000000" y="-149.999993" height="1799.99992" fill-opacity="0.5"/></g></mask><clipPath id="edd82ff1a3"><rect x="0" width="82" y="0" height="156"/></clipPath><mask id="84c35a5ede"><g filter="url(#e50601d90b)"><rect x="-150" width="1800" fill="#000000" y="-149.999993" height="1799.99992" fill-opacity="0.5"/></g></mask><clipPath id="cb25373ddd"><rect x="0" width="84" y="0" height="156"/></clipPath><mask id="d9a2f14210"><g filter="url(#e50601d90b)"><rect x="-150" width="1800" fill="#000000" y="-149.999993" height="1799.99992" fill-opacity="0.5"/></g></mask><clipPath id="76839dcaf3"><rect x="0" width="82" y="0" height="156"/></clipPath><mask id="451af5155f"><g filter="url(#e50601d90b)"><rect x="-150" width="1800" fill="#000000" y="-149.999993" height="1799.99992" fill-opacity="0.5"/></g></mask><clipPath id="cc364ccc83"><rect x="0" width="81" y="0" height="156"/></clipPath><mask id="6c3b6bfc89"><g filter="url(#e50601d90b)"><rect x="-150" width="1800" fill="#000000" y="-149.999993" height="1799.99992" fill-opacity="0.5"/></g></mask><clipPath id="b2c76363ce"><rect x="0" width="81" y="0" height="156"/></clipPath><mask id="4fd1248379"><g filter="url(#e50601d90b)"><rect x="-150" width="1800" fill="#000000" y="-149.999993" height="1799.99992" fill-opacity="0.5"/></g></mask><clipPath id="c311b64539"><rect x="0" width="93" y="0" height="156"/></clipPath><mask id="59c84e6291"><g filter="url(#e50601d90b)"><rect x="-150" width="1800" fill="#000000" y="-149.999993" height="1799.99992" fill-opacity="0.5"/></g></mask><clipPath id="674111c8c2"><rect x="0" width="81" y="0" height="156"/></clipPath><mask id="81b19aa021"><g filter="url(#e50601d90b)"><rect x="-150" width="1800" fill="#000000" y="-149.999993" height="1799.99992" fill-opacity="0.5"/></g></mask><clipPath id="455c7caee3"><rect x="0" width="92" y="0" height="156"/></clipPath><mask id="9a026e7286"><g filter="url(#e50601d90b)"><rect x="-150" width="1800" fill="#000000" y="-149.999993" height="1799.99992" fill-opacity="0.5"/></g></mask><clipPath id="8b45255e7f"><rect x="0" width="82" y="0" height="156"/></clipPath><mask id="6e2f89556e"><g filter="url(#e50601d90b)"><rect x="-150" width="1800" fill="#000000" y="-149.999993" height="1799.99992" fill-opacity="0.5"/></g></mask><clipPath id="92dfb777bb"><rect x="0" width="82" y="0" height="156"/></clipPath><mask id="e470119d3f"><g filter="url(#e50601d90b)"><rect x="-150" width="1800" fill="#000000" y="-149.999993" height="1799.99992" fill-opacity="0.5"/></g></mask><clipPath id="1690a5847b"><rect x="0" width="81" y="0" height="156"/></clipPath><mask id="8b12f63342"><g filter="url(#e50601d90b)"><rect x="-150" width="1800" fill="#000000" y="-149.999993" height="1799.99992" fill-opacity="0.5"/></g></mask><clipPath id="21a5b69034"><rect x="0" width="81" y="0" height="156"/></clipPath><mask id="3860ea38dd"><g filter="url(#e50601d90b)"><rect x="-150" width="1800" fill="#000000" y="-149.999993" height="1799.99992" fill-opacity="0.5"/></g></mask><clipPath id="8f5364c6e0"><rect x="0" width="77" y="0" height="156"/></clipPath><mask id="0f575d1f27"><g filter="url(#e50601d90b)"><rect x="-150" width="1800" fill="#000000" y="-149.999993" height="1799.99992" fill-opacity="0.5"/></g></mask><clipPath id="bb37ccfbb3"><rect x="0" width="81" y="0" height="156"/></clipPath><mask id="699d967b6f"><g filter="url(#e50601d90b)"><rect x="-150" width="1800" fill="#000000" y="-149.999993" height="1799.99992" fill-opacity="0.5"/></g></mask><clipPath id="ac949a875b"><rect x="0" width="78" y="0" height="156"/></clipPath><mask id="ce4e396f39"><g filter="url(#e50601d90b)"><rect x="-150" width="1800" fill="#000000" y="-149.999993" height="1799.99992" fill-opacity="0.5"/></g></mask><clipPath id="1fbe717927"><rect x="0" width="82" y="0" height="156"/></clipPath><mask id="af56a951c9"><g filter="url(#e50601d90b)"><rect x="-150" width="1800" fill="#000000" y="-149.999993" height="1799.99992" fill-opacity="0.5"/></g></mask><clipPath id="f89cb19d8d"><rect x="0" width="78" y="0" height="156"/></clipPath><mask id="781a3e4a23"><g filter="url(#e50601d90b)"><rect x="-150" width="1800" fill="#000000" y="-149.999993" height="1799.99992" fill-opacity="0.5"/></g></mask><clipPath id="45f04fd96e"><rect x="0" width="81" y="0" height="155"/></clipPath><mask id="294b83cb6f"><g filter="url(#e50601d90b)"><rect x="-150" width="1800" fill="#000000" y="-149.999993" height="1799.99992" fill-opacity="0.5"/></g></mask><clipPath id="85db5d1331"><rect x="0" width="81" y="0" height="155"/></clipPath><mask id="28ec37598c"><g filter="url(#e50601d90b)"><rect x="-150" width="1800" fill="#000000" y="-149.999993" height="1799.99992" fill-opacity="0.5"/></g></mask><clipPath id="04aab4435a"><rect x="0" width="116" y="0" height="155"/></clipPath><mask id="1c347ac409"><g filter="url(#e50601d90b)"><rect x="-150" width="1800" fill="#000000" y="-149.999993" height="1799.99992" fill-opacity="0.5"/></g></mask><clipPath id="a9dbff73aa"><rect x="0" width="116" y="0" height="155"/></clipPath><mask id="1fc6517d76"><g filter="url(#e50601d90b)"><rect x="-150" width="1800" fill="#000000" y="-149.999993" height="1799.99992" fill-opacity="0.5"/></g></mask><clipPath id="3bb5832591"><rect x="0" width="116" y="0" height="155"/></clipPath><mask id="7682bfb6df"><g filter="url(#e50601d90b)"><rect x="-150" width="1800" fill="#000000" y="-149.999993" height="1799.99992" fill-opacity="0.5"/></g></mask><clipPath id="4b119b2c8a"><rect x="0" width="82" y="0" height="155"/></clipPath><mask id="cc77129d95"><g filter="url(#e50601d90b)"><rect x="-150" width="1800" fill="#000000" y="-149.999993" height="1799.99992" fill-opacity="0.5"/></g></mask><clipPath id="0ca75eaf59"><rect x="0" width="116" y="0" height="155"/></clipPath></defs><rect x="-150" width="1800" fill="#ffffff" y="-149.999993" height="1799.99992" fill-opacity="1"/><rect x="-150" width="1800" fill="#4a4b4b" y="-149.999993" height="1799.99992" fill-opacity="1"/><g mask="url(#aab6443c0a)"><g transform="matrix(1, 0, 0, 1, 150, 149)"><g clip-path="url(#ec5eb7b2e3)"><g fill="#dbc291" fill-opacity="1"><g transform="translate(0.00002043, 123.199932)"><g><path d="M 40.125 1.3125 C 33.207031 1.3125 27.300781 -0.582031 22.40625 -4.375 C 17.507812 -8.164062 13.75 -13.625 11.125 -20.75 C 8.5 -27.875 7.1875 -36.457031 7.1875 -46.5 C 7.1875 -56.539062 8.5 -65.125 11.125 -72.25 C 13.75 -79.375 17.519531 -84.851562 22.4375 -88.6875 C 27.351562 -92.519531 33.25 -94.4375 40.125 -94.4375 C 47 -94.4375 52.90625 -92.519531 57.84375 -88.6875 C 62.78125 -84.851562 66.550781 -79.375 69.15625 -72.25 C 71.757812 -65.125 73.0625 -56.539062 73.0625 -46.5 C 73.0625 -36.5 71.757812 -27.925781 69.15625 -20.78125 C 66.550781 -13.632812 62.800781 -8.164062 57.90625 -4.375 C 53.007812 -0.582031 47.082031 1.3125 40.125 1.3125 Z M 40.125 -9 C 44.707031 -9 48.613281 -10.488281 51.84375 -13.46875 C 55.070312 -16.445312 57.539062 -20.726562 59.25 -26.3125 C 60.957031 -31.894531 61.8125 -38.625 61.8125 -46.5 C 61.8125 -54.414062 60.957031 -61.1875 59.25 -66.8125 C 57.539062 -72.4375 55.070312 -76.738281 51.84375 -79.71875 C 48.613281 -82.695312 44.707031 -84.1875 40.125 -84.1875 C 35.539062 -84.1875 31.632812 -82.6875 28.40625 -79.6875 C 25.175781 -76.6875 22.707031 -72.382812 21 -66.78125 C 19.289062 -61.175781 18.4375 -54.414062 18.4375 -46.5 C 18.4375 -38.625 19.289062 -31.894531 21 -26.3125 C 22.707031 -20.726562 25.175781 -16.445312 28.40625 -13.46875 C 31.632812 -10.488281 35.539062 -9 40.125 -9 Z M 40.125 -9 "/></g></g></g></g></g></g><g fill="#fef5c8" fill-opacity="1"><g transform="translate(299.909451, 272.199931)"><g><path d="M 8.0625 0 L 8.0625 -93.125 L 27.1875 -93.125 L 27.1875 -55.5625 L 67.5625 -55.5625 L 67.5625 -93.125 L 86.6875 -93.125 L 86.6875 0 L 67.5625 0 L 67.5625 -39.5625 L 27.1875 -39.5625 L 27.1875 0 Z M 8.0625 0 "/></g></g></g><g mask="url(#b6586d626c)"><g transform="matrix(1, 0, 0, 1, 639, 149)"><g clip-path="url(#2998050236)"><g fill="#dbc291" fill-opacity="1"><g transform="translate(0.415818, 123.199932)"><g><path d="M 40.125 1.3125 C 33.207031 1.3125 27.300781 -0.582031 22.40625 -4.375 C 17.507812 -8.164062 13.75 -13.625 11.125 -20.75 C 8.5 -27.875 7.1875 -36.457031 7.1875 -46.5 C 7.1875 -56.539062 8.5 -65.125 11.125 -72.25 C 13.75 -79.375 17.519531 -84.851562 22.4375 -88.6875 C 27.351562 -92.519531 33.25 -94.4375 40.125 -94.4375 C 47 -94.4375 52.90625 -92.519531 57.84375 -88.6875 C 62.78125 -84.851562 66.550781 -79.375 69.15625 -72.25 C 71.757812 -65.125 73.0625 -56.539062 73.0625 -46.5 C 73.0625 -36.5 71.757812 -27.925781 69.15625 -20.78125 C 66.550781 -13.632812 62.800781 -8.164062 57.90625 -4.375 C 53.007812 -0.582031 47.082031 1.3125 40.125 1.3125 Z M 40.125 -9 C 44.707031 -9 48.613281 -10.488281 51.84375 -13.46875 C 55.070312 -16.445312 57.539062 -20.726562 59.25 -26.3125 C 60.957031 -31.894531 61.8125 -38.625 61.8125 -46.5 C 61.8125 -54.414062 60.957031 -61.1875 59.25 -66.8125 C 57.539062 -72.4375 55.070312 -76.738281 51.84375 -79.71875 C 48.613281 -82.695312 44.707031 -84.1875 40.125 -84.1875 C 35.539062 -84.1875 31.632812 -82.6875 28.40625 -79.6875 C 25.175781 -76.6875 22.707031 -72.382812 21 -66.78125 C 19.289062 -61.175781 18.4375 -54.414062 18.4375 -46.5 C 18.4375 -38.625 19.289062 -31.894531 21 -26.3125 C 22.707031 -20.726562 25.175781 -16.445312 28.40625 -13.46875 C 31.632812 -10.488281 35.539062 -9 40.125 -9 Z M 40.125 -9 "/></g></g></g></g></g></g><g mask="url(#cc86bfc025)"><g transform="matrix(1, 0, 0, 1, 474, 149)"><g clip-path="url(#be04a6d125)"><g fill="#fef5c8" fill-opacity="1"><g transform="translate(0.41261, 123.199932)"><g><path d="M 10.8125 0 L 10.8125 -93.125 L 22.5625 -93.125 L 22.5625 -52.8125 L 71.5625 -52.8125 L 71.5625 -93.125 L 83.3125 -93.125 L 83.3125 0 L 71.5625 0 L 71.5625 -42.4375 L 22.5625 -42.4375 L 22.5625 0 Z M 10.8125 0 "/></g></g></g></g></g></g><g mask="url(#ad203559cd)"><g transform="matrix(1, 0, 0, 1, 790, 149)"><g clip-path="url(#403d8c7abf)"><g fill="#fef5c8" fill-opacity="1"><g transform="translate(0.544028, 123.199932)"><g><path d="M 10.8125 0 L 10.8125 -93.125 L 22.5625 -93.125 L 22.5625 -52.8125 L 71.5625 -52.8125 L 71.5625 -93.125 L 83.3125 -93.125 L 83.3125 0 L 71.5625 0 L 71.5625 -42.4375 L 22.5625 -42.4375 L 22.5625 0 Z M 10.8125 0 "/></g></g></g></g></g></g><g mask="url(#b6558b865b)"><g transform="matrix(1, 0, 0, 1, 971, 149)"><g clip-path="url(#5ad7faa25b)"><g fill="#dbc291" fill-opacity="1"><g transform="translate(0.672118, 123.199932)"><g><path d="M 40.125 1.3125 C 33.207031 1.3125 27.300781 -0.582031 22.40625 -4.375 C 17.507812 -8.164062 13.75 -13.625 11.125 -20.75 C 8.5 -27.875 7.1875 -36.457031 7.1875 -46.5 C 7.1875 -56.539062 8.5 -65.125 11.125 -72.25 C 13.75 -79.375 17.519531 -84.851562 22.4375 -88.6875 C 27.351562 -92.519531 33.25 -94.4375 40.125 -94.4375 C 47 -94.4375 52.90625 -92.519531 57.84375 -88.6875 C 62.78125 -84.851562 66.550781 -79.375 69.15625 -72.25 C 71.757812 -65.125 73.0625 -56.539062 73.0625 -46.5 C 73.0625 -36.5 71.757812 -27.925781 69.15625 -20.78125 C 66.550781 -13.632812 62.800781 -8.164062 57.90625 -4.375 C 53.007812 -0.582031 47.082031 1.3125 40.125 1.3125 Z M 40.125 -9 C 44.707031 -9 48.613281 -10.488281 51.84375 -13.46875 C 55.070312 -16.445312 57.539062 -20.726562 59.25 -26.3125 C 60.957031 -31.894531 61.8125 -38.625 61.8125 -46.5 C 61.8125 -54.414062 60.957031 -61.1875 59.25 -66.8125 C 57.539062 -72.4375 55.070312 -76.738281 51.84375 -79.71875 C 48.613281 -82.695312 44.707031 -84.1875 40.125 -84.1875 C 35.539062 -84.1875 31.632812 -82.6875 28.40625 -79.6875 C 25.175781 -76.6875 22.707031 -72.382812 21 -66.78125 C 19.289062 -61.175781 18.4375 -54.414062 18.4375 -46.5 C 18.4375 -38.625 19.289062 -31.894531 21 -26.3125 C 22.707031 -20.726562 25.175781 -16.445312 28.40625 -13.46875 C 31.632812 -10.488281 35.539062 -9 40.125 -9 Z M 40.125 -9 "/></g></g></g></g></g></g><g mask="url(#9b469a4ce2)"><g transform="matrix(1, 0, 0, 1, 1129, 149)"><g clip-path="url(#0cf81e3389)"><g fill="#dbc291" fill-opacity="1"><g transform="translate(0.737827, 123.199932)"><g><path d="M 40.125 1.3125 C 33.207031 1.3125 27.300781 -0.582031 22.40625 -4.375 C 17.507812 -8.164062 13.75 -13.625 11.125 -20.75 C 8.5 -27.875 7.1875 -36.457031 7.1875 -46.5 C 7.1875 -56.539062 8.5 -65.125 11.125 -72.25 C 13.75 -79.375 17.519531 -84.851562 22.4375 -88.6875 C 27.351562 -92.519531 33.25 -94.4375 40.125 -94.4375 C 47 -94.4375 52.90625 -92.519531 57.84375 -88.6875 C 62.78125 -84.851562 66.550781 -79.375 69.15625 -72.25 C 71.757812 -65.125 73.0625 -56.539062 73.0625 -46.5 C 73.0625 -36.5 71.757812 -27.925781 69.15625 -20.78125 C 66.550781 -13.632812 62.800781 -8.164062 57.90625 -4.375 C 53.007812 -0.582031 47.082031 1.3125 40.125 1.3125 Z M 40.125 -9 C 44.707031 -9 48.613281 -10.488281 51.84375 -13.46875 C 55.070312 -16.445312 57.539062 -20.726562 59.25 -26.3125 C 60.957031 -31.894531 61.8125 -38.625 61.8125 -46.5 C 61.8125 -54.414062 60.957031 -61.1875 59.25 -66.8125 C 57.539062 -72.4375 55.070312 -76.738281 51.84375 -79.71875 C 48.613281 -82.695312 44.707031 -84.1875 40.125 -84.1875 C 35.539062 -84.1875 31.632812 -82.6875 28.40625 -79.6875 C 25.175781 -76.6875 22.707031 -72.382812 21 -66.78125 C 19.289062 -61.175781 18.4375 -54.414062 18.4375 -46.5 C 18.4375 -38.625 19.289062 -31.894531 21 -26.3125 C 22.707031 -20.726562 25.175781 -16.445312 28.40625 -13.46875 C 31.632812 -10.488281 35.539062 -9 40.125 -9 Z M 40.125 -9 "/></g></g></g></g></g></g><g mask="url(#b849e1e40f)"><g transform="matrix(1, 0, 0, 1, 1287, 149)"><g clip-path="url(#4a51243db4)"><g fill="#dbc291" fill-opacity="1"><g transform="translate(0.803477, 123.199932)"><g><path d="M 40.125 1.3125 C 33.207031 1.3125 27.300781 -0.582031 22.40625 -4.375 C 17.507812 -8.164062 13.75 -13.625 11.125 -20.75 C 8.5 -27.875 7.1875 -36.457031 7.1875 -46.5 C 7.1875 -56.539062 8.5 -65.125 11.125 -72.25 C 13.75 -79.375 17.519531 -84.851562 22.4375 -88.6875 C 27.351562 -92.519531 33.25 -94.4375 40.125 -94.4375 C 47 -94.4375 52.90625 -92.519531 57.84375 -88.6875 C 62.78125 -84.851562 66.550781 -79.375 69.15625 -72.25 C 71.757812 -65.125 73.0625 -56.539062 73.0625 -46.5 C 73.0625 -36.5 71.757812 -27.925781 69.15625 -20.78125 C 66.550781 -13.632812 62.800781 -8.164062 57.90625 -4.375 C 53.007812 -0.582031 47.082031 1.3125 40.125 1.3125 Z M 40.125 -9 C 44.707031 -9 48.613281 -10.488281 51.84375 -13.46875 C 55.070312 -16.445312 57.539062 -20.726562 59.25 -26.3125 C 60.957031 -31.894531 61.8125 -38.625 61.8125 -46.5 C 61.8125 -54.414062 60.957031 -61.1875 59.25 -66.8125 C 57.539062 -72.4375 55.070312 -76.738281 51.84375 -79.71875 C 48.613281 -82.695312 44.707031 -84.1875 40.125 -84.1875 C 35.539062 -84.1875 31.632812 -82.6875 28.40625 -79.6875 C 25.175781 -76.6875 22.707031 -72.382812 21 -66.78125 C 19.289062 -61.175781 18.4375 -54.414062 18.4375 -46.5 C 18.4375 -38.625 19.289062 -31.894531 21 -26.3125 C 22.707031 -20.726562 25.175781 -16.445312 28.40625 -13.46875 C 31.632812 -10.488281 35.539062 -9 40.125 -9 Z M 40.125 -9 "/></g></g></g></g></g></g><g mask="url(#68c78ca22d)"><g transform="matrix(1, 0, 0, 1, 150, 358)"><g clip-path="url(#66c267c339)"><g fill="#dbc291" fill-opacity="1"><g transform="translate(0.00002043, 123.619909)"><g><path d="M 40.125 1.3125 C 33.207031 1.3125 27.300781 -0.582031 22.40625 -4.375 C 17.507812 -8.164062 13.75 -13.625 11.125 -20.75 C 8.5 -27.875 7.1875 -36.457031 7.1875 -46.5 C 7.1875 -56.539062 8.5 -65.125 11.125 -72.25 C 13.75 -79.375 17.519531 -84.851562 22.4375 -88.6875 C 27.351562 -92.519531 33.25 -94.4375 40.125 -94.4375 C 47 -94.4375 52.90625 -92.519531 57.84375 -88.6875 C 62.78125 -84.851562 66.550781 -79.375 69.15625 -72.25 C 71.757812 -65.125 73.0625 -56.539062 73.0625 -46.5 C 73.0625 -36.5 71.757812 -27.925781 69.15625 -20.78125 C 66.550781 -13.632812 62.800781 -8.164062 57.90625 -4.375 C 53.007812 -0.582031 47.082031 1.3125 40.125 1.3125 Z M 40.125 -9 C 44.707031 -9 48.613281 -10.488281 51.84375 -13.46875 C 55.070312 -16.445312 57.539062 -20.726562 59.25 -26.3125 C 60.957031 -31.894531 61.8125 -38.625 61.8125 -46.5 C 61.8125 -54.414062 60.957031 -61.1875 59.25 -66.8125 C 57.539062 -72.4375 55.070312 -76.738281 51.84375 -79.71875 C 48.613281 -82.695312 44.707031 -84.1875 40.125 -84.1875 C 35.539062 -84.1875 31.632812 -82.6875 28.40625 -79.6875 C 25.175781 -76.6875 22.707031 -72.382812 21 -66.78125 C 19.289062 -61.175781 18.4375 -54.414062 18.4375 -46.5 C 18.4375 -38.625 19.289062 -31.894531 21 -26.3125 C 22.707031 -20.726562 25.175781 -16.445312 28.40625 -13.46875 C 31.632812 -10.488281 35.539062 -9 40.125 -9 Z M 40.125 -9 "/></g></g></g></g></g></g><g fill="#fef5c8" fill-opacity="1"><g transform="translate(308.409441, 481.61991)"><g><path d="M 8.0625 0 L 8.0625 -93.125 L 71.4375 -93.125 L 71.4375 -77.125 L 27.1875 -77.125 L 27.1875 -54.875 L 68.0625 -54.875 L 68.0625 -39.1875 L 27.1875 -39.1875 L 27.1875 -16 L 71.5 -16 L 71.5 0 Z M 8.0625 0 "/></g></g></g><g mask="url(#200881b344)"><g transform="matrix(1, 0, 0, 1, 639, 358)"><g clip-path="url(#f564c659b4)"><g fill="#dbc291" fill-opacity="1"><g transform="translate(0.415818, 123.619909)"><g><path d="M 40.125 1.3125 C 33.207031 1.3125 27.300781 -0.582031 22.40625 -4.375 C 17.507812 -8.164062 13.75 -13.625 11.125 -20.75 C 8.5 -27.875 7.1875 -36.457031 7.1875 -46.5 C 7.1875 -56.539062 8.5 -65.125 11.125 -72.25 C 13.75 -79.375 17.519531 -84.851562 22.4375 -88.6875 C 27.351562 -92.519531 33.25 -94.4375 40.125 -94.4375 C 47 -94.4375 52.90625 -92.519531 57.84375 -88.6875 C 62.78125 -84.851562 66.550781 -79.375 69.15625 -72.25 C 71.757812 -65.125 73.0625 -56.539062 73.0625 -46.5 C 73.0625 -36.5 71.757812 -27.925781 69.15625 -20.78125 C 66.550781 -13.632812 62.800781 -8.164062 57.90625 -4.375 C 53.007812 -0.582031 47.082031 1.3125 40.125 1.3125 Z M 40.125 -9 C 44.707031 -9 48.613281 -10.488281 51.84375 -13.46875 C 55.070312 -16.445312 57.539062 -20.726562 59.25 -26.3125 C 60.957031 -31.894531 61.8125 -38.625 61.8125 -46.5 C 61.8125 -54.414062 60.957031 -61.1875 59.25 -66.8125 C 57.539062 -72.4375 55.070312 -76.738281 51.84375 -79.71875 C 48.613281 -82.695312 44.707031 -84.1875 40.125 -84.1875 C 35.539062 -84.1875 31.632812 -82.6875 28.40625 -79.6875 C 25.175781 -76.6875 22.707031 -72.382812 21 -66.78125 C 19.289062 -61.175781 18.4375 -54.414062 18.4375 -46.5 C 18.4375 -38.625 19.289062 -31.894531 21 -26.3125 C 22.707031 -20.726562 25.175781 -16.445312 28.40625 -13.46875 C 31.632812 -10.488281 35.539062 -9 40.125 -9 Z M 40.125 -9 "/></g></g></g></g></g></g><g mask="url(#bbbd631d74)"><g transform="matrix(1, 0, 0, 1, 483, 358)"><g clip-path="url(#9f4ebdac56)"><g fill="#fef5c8" fill-opacity="1"><g transform="translate(0.318859, 123.619909)"><g><path d="M 10.8125 0 L 10.8125 -93.125 L 68.375 -93.125 L 68.375 -82.75 L 22.5625 -82.75 L 22.5625 -52.375 L 65.1875 -52.375 L 65.1875 -41.9375 L 22.5625 -41.9375 L 22.5625 -10.375 L 68.8125 -10.375 L 68.8125 0 Z M 10.8125 0 "/></g></g></g></g></g></g><g mask="url(#ed9818006a)"><g transform="matrix(1, 0, 0, 1, 797, 358)"><g clip-path="url(#ef5d38b375)"><g fill="#dbc291" fill-opacity="1"><g transform="translate(0.481527, 123.619909)"><g><path d="M 40.125 1.3125 C 33.207031 1.3125 27.300781 -0.582031 22.40625 -4.375 C 17.507812 -8.164062 13.75 -13.625 11.125 -20.75 C 8.5 -27.875 7.1875 -36.457031 7.1875 -46.5 C 7.1875 -56.539062 8.5 -65.125 11.125 -72.25 C 13.75 -79.375 17.519531 -84.851562 22.4375 -88.6875 C 27.351562 -92.519531 33.25 -94.4375 40.125 -94.4375 C 47 -94.4375 52.90625 -92.519531 57.84375 -88.6875 C 62.78125 -84.851562 66.550781 -79.375 69.15625 -72.25 C 71.757812 -65.125 73.0625 -56.539062 73.0625 -46.5 C 73.0625 -36.5 71.757812 -27.925781 69.15625 -20.78125 C 66.550781 -13.632812 62.800781 -8.164062 57.90625 -4.375 C 53.007812 -0.582031 47.082031 1.3125 40.125 1.3125 Z M 40.125 -9 C 44.707031 -9 48.613281 -10.488281 51.84375 -13.46875 C 55.070312 -16.445312 57.539062 -20.726562 59.25 -26.3125 C 60.957031 -31.894531 61.8125 -38.625 61.8125 -46.5 C 61.8125 -54.414062 60.957031 -61.1875 59.25 -66.8125 C 57.539062 -72.4375 55.070312 -76.738281 51.84375 -79.71875 C 48.613281 -82.695312 44.707031 -84.1875 40.125 -84.1875 C 35.539062 -84.1875 31.632812 -82.6875 28.40625 -79.6875 C 25.175781 -76.6875 22.707031 -72.382812 21 -66.78125 C 19.289062 -61.175781 18.4375 -54.414062 18.4375 -46.5 C 18.4375 -38.625 19.289062 -31.894531 21 -26.3125 C 22.707031 -20.726562 25.175781 -16.445312 28.40625 -13.46875 C 31.632812 -10.488281 35.539062 -9 40.125 -9 Z M 40.125 -9 "/></g></g></g></g></g></g><g mask="url(#e28d499a32)"><g transform="matrix(1, 0, 0, 1, 973, 358)"><g clip-path="url(#44c9e8162f)"><g fill="#fef5c8" fill-opacity="1"><g transform="translate(0.640867, 123.619909)"><g><path d="M 10.8125 0 L 10.8125 -93.125 L 68.375 -93.125 L 68.375 -82.75 L 22.5625 -82.75 L 22.5625 -52.375 L 65.1875 -52.375 L 65.1875 -41.9375 L 22.5625 -41.9375 L 22.5625 -10.375 L 68.8125 -10.375 L 68.8125 0 Z M 10.8125 0 "/></g></g></g></g></g></g><g mask="url(#15b0f822be)"><g transform="matrix(1, 0, 0, 1, 1129, 358)"><g clip-path="url(#f8ac183666)"><g fill="#dbc291" fill-opacity="1"><g transform="translate(0.737827, 123.619909)"><g><path d="M 40.125 1.3125 C 33.207031 1.3125 27.300781 -0.582031 22.40625 -4.375 C 17.507812 -8.164062 13.75 -13.625 11.125 -20.75 C 8.5 -27.875 7.1875 -36.457031 7.1875 -46.5 C 7.1875 -56.539062 8.5 -65.125 11.125 -72.25 C 13.75 -79.375 17.519531 -84.851562 22.4375 -88.6875 C 27.351562 -92.519531 33.25 -94.4375 40.125 -94.4375 C 47 -94.4375 52.90625 -92.519531 57.84375 -88.6875 C 62.78125 -84.851562 66.550781 -79.375 69.15625 -72.25 C 71.757812 -65.125 73.0625 -56.539062 73.0625 -46.5 C 73.0625 -36.5 71.757812 -27.925781 69.15625 -20.78125 C 66.550781 -13.632812 62.800781 -8.164062 57.90625 -4.375 C 53.007812 -0.582031 47.082031 1.3125 40.125 1.3125 Z M 40.125 -9 C 44.707031 -9 48.613281 -10.488281 51.84375 -13.46875 C 55.070312 -16.445312 57.539062 -20.726562 59.25 -26.3125 C 60.957031 -31.894531 61.8125 -38.625 61.8125 -46.5 C 61.8125 -54.414062 60.957031 -61.1875 59.25 -66.8125 C 57.539062 -72.4375 55.070312 -76.738281 51.84375 -79.71875 C 48.613281 -82.695312 44.707031 -84.1875 40.125 -84.1875 C 35.539062 -84.1875 31.632812 -82.6875 28.40625 -79.6875 C 25.175781 -76.6875 22.707031 -72.382812 21 -66.78125 C 19.289062 -61.175781 18.4375 -54.414062 18.4375 -46.5 C 18.4375 -38.625 19.289062 -31.894531 21 -26.3125 C 22.707031 -20.726562 25.175781 -16.445312 28.40625 -13.46875 C 31.632812 -10.488281 35.539062 -9 40.125 -9 Z M 40.125 -9 "/></g></g></g></g></g></g><g mask="url(#27da64fed1)"><g transform="matrix(1, 0, 0, 1, 1289, 358)"><g clip-path="url(#daebf6b618)"><g fill="#fef5c8" fill-opacity="1"><g transform="translate(0.772227, 123.619909)"><g><path d="M 10.8125 0 L 10.8125 -93.125 L 68.375 -93.125 L 68.375 -82.75 L 22.5625 -82.75 L 22.5625 -52.375 L 65.1875 -52.375 L 65.1875 -41.9375 L 22.5625 -41.9375 L 22.5625 -10.375 L 68.8125 -10.375 L 68.8125 0 Z M 10.8125 0 "/></g></g></g></g></g></g><g mask="url(#715cad4a0b)"><g transform="matrix(1, 0, 0, 1, 150, 567)"><g clip-path="url(#fc65fe98ef)"><g fill="#dbc291" fill-opacity="1"><g transform="translate(0.00002043, 124.039901)"><g><path d="M 40.125 1.3125 C 33.207031 1.3125 27.300781 -0.582031 22.40625 -4.375 C 17.507812 -8.164062 13.75 -13.625 11.125 -20.75 C 8.5 -27.875 7.1875 -36.457031 7.1875 -46.5 C 7.1875 -56.539062 8.5 -65.125 11.125 -72.25 C 13.75 -79.375 17.519531 -84.851562 22.4375 -88.6875 C 27.351562 -92.519531 33.25 -94.4375 40.125 -94.4375 C 47 -94.4375 52.90625 -92.519531 57.84375 -88.6875 C 62.78125 -84.851562 66.550781 -79.375 69.15625 -72.25 C 71.757812 -65.125 73.0625 -56.539062 73.0625 -46.5 C 73.0625 -36.5 71.757812 -27.925781 69.15625 -20.78125 C 66.550781 -13.632812 62.800781 -8.164062 57.90625 -4.375 C 53.007812 -0.582031 47.082031 1.3125 40.125 1.3125 Z M 40.125 -9 C 44.707031 -9 48.613281 -10.488281 51.84375 -13.46875 C 55.070312 -16.445312 57.539062 -20.726562 59.25 -26.3125 C 60.957031 -31.894531 61.8125 -38.625 61.8125 -46.5 C 61.8125 -54.414062 60.957031 -61.1875 59.25 -66.8125 C 57.539062 -72.4375 55.070312 -76.738281 51.84375 -79.71875 C 48.613281 -82.695312 44.707031 -84.1875 40.125 -84.1875 C 35.539062 -84.1875 31.632812 -82.6875 28.40625 -79.6875 C 25.175781 -76.6875 22.707031 -72.382812 21 -66.78125 C 19.289062 -61.175781 18.4375 -54.414062 18.4375 -46.5 C 18.4375 -38.625 19.289062 -31.894531 21 -26.3125 C 22.707031 -20.726562 25.175781 -16.445312 28.40625 -13.46875 C 31.632812 -10.488281 35.539062 -9 40.125 -9 Z M 40.125 -9 "/></g></g></g></g></g></g><g fill="#fef5c8" fill-opacity="1"><g transform="translate(305.34695, 691.039912)"><g><path d="M 8.0625 0 L 8.0625 -93.125 L 44.625 -93.125 C 51.664062 -93.125 57.6875 -91.875 62.6875 -89.375 C 67.6875 -86.875 71.507812 -83.351562 74.15625 -78.8125 C 76.800781 -74.269531 78.125 -68.914062 78.125 -62.75 C 78.125 -56.625 76.769531 -51.332031 74.0625 -46.875 C 71.351562 -42.414062 67.457031 -39 62.375 -36.625 C 57.289062 -34.25 51.164062 -33.0625 44 -33.0625 L 19.4375 -33.0625 L 19.4375 -48.5 L 41.6875 -48.5 C 45.4375 -48.5 48.5625 -49.050781 51.0625 -50.15625 C 53.5625 -51.257812 55.445312 -52.875 56.71875 -55 C 57.988281 -57.125 58.625 -59.707031 58.625 -62.75 C 58.625 -65.875 57.988281 -68.507812 56.71875 -70.65625 C 55.445312 -72.800781 53.5625 -74.445312 51.0625 -75.59375 C 48.5625 -76.738281 45.414062 -77.3125 41.625 -77.3125 L 27.1875 -77.3125 L 27.1875 0 Z M 60.125 0 L 37.75 -42.3125 L 58.375 -42.3125 L 81.1875 0 Z M 60.125 0 "/></g></g></g><g mask="url(#526d82f3e7)"><g transform="matrix(1, 0, 0, 1, 638, 567)"><g clip-path="url(#824cd1e82f)"><g fill="#fef5c8" fill-opacity="1"><g transform="translate(0.509549, 124.039901)"><g><path d="M 10.8125 0 L 10.8125 -93.125 L 43.25 -93.125 C 50.332031 -93.125 56.226562 -91.90625 60.9375 -89.46875 C 65.644531 -87.03125 69.164062 -83.65625 71.5 -79.34375 C 73.832031 -75.03125 75 -70.082031 75 -64.5 C 75 -58.875 73.8125 -53.9375 71.4375 -49.6875 C 69.0625 -45.4375 65.519531 -42.132812 60.8125 -39.78125 C 56.101562 -37.425781 50.207031 -36.25 43.125 -36.25 L 17.375 -36.25 L 17.375 -46.6875 L 42.8125 -46.6875 C 47.601562 -46.6875 51.5 -47.40625 54.5 -48.84375 C 57.5 -50.28125 59.71875 -52.332031 61.15625 -55 C 62.59375 -57.664062 63.3125 -60.832031 63.3125 -64.5 C 63.3125 -68.207031 62.59375 -71.425781 61.15625 -74.15625 C 59.71875 -76.882812 57.488281 -79.007812 54.46875 -80.53125 C 51.445312 -82.050781 47.519531 -82.8125 42.6875 -82.8125 L 22.5625 -82.8125 L 22.5625 0 Z M 64.4375 0 L 41.9375 -41.9375 L 55.1875 -41.9375 L 78.0625 0 Z M 64.4375 0 "/></g></g></g></g></g></g><g mask="url(#6c1daabead)"><g transform="matrix(1, 0, 0, 1, 480, 567)"><g clip-path="url(#fd05101a79)"><g fill="#fef5c8" fill-opacity="1"><g transform="translate(0.443898, 124.039901)"><g><path d="M 10.8125 0 L 10.8125 -93.125 L 43.25 -93.125 C 50.332031 -93.125 56.226562 -91.90625 60.9375 -89.46875 C 65.644531 -87.03125 69.164062 -83.65625 71.5 -79.34375 C 73.832031 -75.03125 75 -70.082031 75 -64.5 C 75 -58.875 73.8125 -53.9375 71.4375 -49.6875 C 69.0625 -45.4375 65.519531 -42.132812 60.8125 -39.78125 C 56.101562 -37.425781 50.207031 -36.25 43.125 -36.25 L 17.375 -36.25 L 17.375 -46.6875 L 42.8125 -46.6875 C 47.601562 -46.6875 51.5 -47.40625 54.5 -48.84375 C 57.5 -50.28125 59.71875 -52.332031 61.15625 -55 C 62.59375 -57.664062 63.3125 -60.832031 63.3125 -64.5 C 63.3125 -68.207031 62.59375 -71.425781 61.15625 -74.15625 C 59.71875 -76.882812 57.488281 -79.007812 54.46875 -80.53125 C 51.445312 -82.050781 47.519531 -82.8125 42.6875 -82.8125 L 22.5625 -82.8125 L 22.5625 0 Z M 64.4375 0 L 41.9375 -41.9375 L 55.1875 -41.9375 L 78.0625 0 Z M 64.4375 0 "/></g></g></g></g></g></g><g mask="url(#9604606aac)"><g transform="matrix(1, 0, 0, 1, 797, 567)"><g clip-path="url(#0d02f22cef)"><g fill="#dbc291" fill-opacity="1"><g transform="translate(0.481527, 124.039901)"><g><path d="M 40.125 1.3125 C 33.207031 1.3125 27.300781 -0.582031 22.40625 -4.375 C 17.507812 -8.164062 13.75 -13.625 11.125 -20.75 C 8.5 -27.875 7.1875 -36.457031 7.1875 -46.5 C 7.1875 -56.539062 8.5 -65.125 11.125 -72.25 C 13.75 -79.375 17.519531 -84.851562 22.4375 -88.6875 C 27.351562 -92.519531 33.25 -94.4375 40.125 -94.4375 C 47 -94.4375 52.90625 -92.519531 57.84375 -88.6875 C 62.78125 -84.851562 66.550781 -79.375 69.15625 -72.25 C 71.757812 -65.125 73.0625 -56.539062 73.0625 -46.5 C 73.0625 -36.5 71.757812 -27.925781 69.15625 -20.78125 C 66.550781 -13.632812 62.800781 -8.164062 57.90625 -4.375 C 53.007812 -0.582031 47.082031 1.3125 40.125 1.3125 Z M 40.125 -9 C 44.707031 -9 48.613281 -10.488281 51.84375 -13.46875 C 55.070312 -16.445312 57.539062 -20.726562 59.25 -26.3125 C 60.957031 -31.894531 61.8125 -38.625 61.8125 -46.5 C 61.8125 -54.414062 60.957031 -61.1875 59.25 -66.8125 C 57.539062 -72.4375 55.070312 -76.738281 51.84375 -79.71875 C 48.613281 -82.695312 44.707031 -84.1875 40.125 -84.1875 C 35.539062 -84.1875 31.632812 -82.6875 28.40625 -79.6875 C 25.175781 -76.6875 22.707031 -72.382812 21 -66.78125 C 19.289062 -61.175781 18.4375 -54.414062 18.4375 -46.5 C 18.4375 -38.625 19.289062 -31.894531 21 -26.3125 C 22.707031 -20.726562 25.175781 -16.445312 28.40625 -13.46875 C 31.632812 -10.488281 35.539062 -9 40.125 -9 Z M 40.125 -9 "/></g></g></g></g></g></g><g mask="url(#d1f5481325)"><g transform="matrix(1, 0, 0, 1, 971, 567)"><g clip-path="url(#edd82ff1a3)"><g fill="#dbc291" fill-opacity="1"><g transform="translate(0.672118, 124.039901)"><g><path d="M 40.125 1.3125 C 33.207031 1.3125 27.300781 -0.582031 22.40625 -4.375 C 17.507812 -8.164062 13.75 -13.625 11.125 -20.75 C 8.5 -27.875 7.1875 -36.457031 7.1875 -46.5 C 7.1875 -56.539062 8.5 -65.125 11.125 -72.25 C 13.75 -79.375 17.519531 -84.851562 22.4375 -88.6875 C 27.351562 -92.519531 33.25 -94.4375 40.125 -94.4375 C 47 -94.4375 52.90625 -92.519531 57.84375 -88.6875 C 62.78125 -84.851562 66.550781 -79.375 69.15625 -72.25 C 71.757812 -65.125 73.0625 -56.539062 73.0625 -46.5 C 73.0625 -36.5 71.757812 -27.925781 69.15625 -20.78125 C 66.550781 -13.632812 62.800781 -8.164062 57.90625 -4.375 C 53.007812 -0.582031 47.082031 1.3125 40.125 1.3125 Z M 40.125 -9 C 44.707031 -9 48.613281 -10.488281 51.84375 -13.46875 C 55.070312 -16.445312 57.539062 -20.726562 59.25 -26.3125 C 60.957031 -31.894531 61.8125 -38.625 61.8125 -46.5 C 61.8125 -54.414062 60.957031 -61.1875 59.25 -66.8125 C 57.539062 -72.4375 55.070312 -76.738281 51.84375 -79.71875 C 48.613281 -82.695312 44.707031 -84.1875 40.125 -84.1875 C 35.539062 -84.1875 31.632812 -82.6875 28.40625 -79.6875 C 25.175781 -76.6875 22.707031 -72.382812 21 -66.78125 C 19.289062 -61.175781 18.4375 -54.414062 18.4375 -46.5 C 18.4375 -38.625 19.289062 -31.894531 21 -26.3125 C 22.707031 -20.726562 25.175781 -16.445312 28.40625 -13.46875 C 31.632812 -10.488281 35.539062 -9 40.125 -9 Z M 40.125 -9 "/></g></g></g></g></g></g><g mask="url(#84c35a5ede)"><g transform="matrix(1, 0, 0, 1, 1128, 567)"><g clip-path="url(#cb25373ddd)"><g fill="#fef5c8" fill-opacity="1"><g transform="translate(0.831616, 124.039901)"><g><path d="M 10.8125 0 L 10.8125 -93.125 L 43.25 -93.125 C 50.332031 -93.125 56.226562 -91.90625 60.9375 -89.46875 C 65.644531 -87.03125 69.164062 -83.65625 71.5 -79.34375 C 73.832031 -75.03125 75 -70.082031 75 -64.5 C 75 -58.875 73.8125 -53.9375 71.4375 -49.6875 C 69.0625 -45.4375 65.519531 -42.132812 60.8125 -39.78125 C 56.101562 -37.425781 50.207031 -36.25 43.125 -36.25 L 17.375 -36.25 L 17.375 -46.6875 L 42.8125 -46.6875 C 47.601562 -46.6875 51.5 -47.40625 54.5 -48.84375 C 57.5 -50.28125 59.71875 -52.332031 61.15625 -55 C 62.59375 -57.664062 63.3125 -60.832031 63.3125 -64.5 C 63.3125 -68.207031 62.59375 -71.425781 61.15625 -74.15625 C 59.71875 -76.882812 57.488281 -79.007812 54.46875 -80.53125 C 51.445312 -82.050781 47.519531 -82.8125 42.6875 -82.8125 L 22.5625 -82.8125 L 22.5625 0 Z M 64.4375 0 L 41.9375 -41.9375 L 55.1875 -41.9375 L 78.0625 0 Z M 64.4375 0 "/></g></g></g></g></g></g><g mask="url(#d9a2f14210)"><g transform="matrix(1, 0, 0, 1, 1287, 567)"><g clip-path="url(#76839dcaf3)"><g fill="#dbc291" fill-opacity="1"><g transform="translate(0.803477, 124.039901)"><g><path d="M 40.125 1.3125 C 33.207031 1.3125 27.300781 -0.582031 22.40625 -4.375 C 17.507812 -8.164062 13.75 -13.625 11.125 -20.75 C 8.5 -27.875 7.1875 -36.457031 7.1875 -46.5 C 7.1875 -56.539062 8.5 -65.125 11.125 -72.25 C 13.75 -79.375 17.519531 -84.851562 22.4375 -88.6875 C 27.351562 -92.519531 33.25 -94.4375 40.125 -94.4375 C 47 -94.4375 52.90625 -92.519531 57.84375 -88.6875 C 62.78125 -84.851562 66.550781 -79.375 69.15625 -72.25 C 71.757812 -65.125 73.0625 -56.539062 73.0625 -46.5 C 73.0625 -36.5 71.757812 -27.925781 69.15625 -20.78125 C 66.550781 -13.632812 62.800781 -8.164062 57.90625 -4.375 C 53.007812 -0.582031 47.082031 1.3125 40.125 1.3125 Z M 40.125 -9 C 44.707031 -9 48.613281 -10.488281 51.84375 -13.46875 C 55.070312 -16.445312 57.539062 -20.726562 59.25 -26.3125 C 60.957031 -31.894531 61.8125 -38.625 61.8125 -46.5 C 61.8125 -54.414062 60.957031 -61.1875 59.25 -66.8125 C 57.539062 -72.4375 55.070312 -76.738281 51.84375 -79.71875 C 48.613281 -82.695312 44.707031 -84.1875 40.125 -84.1875 C 35.539062 -84.1875 31.632812 -82.6875 28.40625 -79.6875 C 25.175781 -76.6875 22.707031 -72.382812 21 -66.78125 C 19.289062 -61.175781 18.4375 -54.414062 18.4375 -46.5 C 18.4375 -38.625 19.289062 -31.894531 21 -26.3125 C 22.707031 -20.726562 25.175781 -16.445312 28.40625 -13.46875 C 31.632812 -10.488281 35.539062 -9 40.125 -9 Z M 40.125 -9 "/></g></g></g></g></g></g><g mask="url(#451af5155f)"><g transform="matrix(1, 0, 0, 1, 150, 777)"><g clip-path="url(#cc364ccc83)"><g fill="#dbc291" fill-opacity="1"><g transform="translate(0.00002043, 123.459922)"><g><path d="M 40.125 1.3125 C 33.207031 1.3125 27.300781 -0.582031 22.40625 -4.375 C 17.507812 -8.164062 13.75 -13.625 11.125 -20.75 C 8.5 -27.875 7.1875 -36.457031 7.1875 -46.5 C 7.1875 -56.539062 8.5 -65.125 11.125 -72.25 C 13.75 -79.375 17.519531 -84.851562 22.4375 -88.6875 C 27.351562 -92.519531 33.25 -94.4375 40.125 -94.4375 C 47 -94.4375 52.90625 -92.519531 57.84375 -88.6875 C 62.78125 -84.851562 66.550781 -79.375 69.15625 -72.25 C 71.757812 -65.125 73.0625 -56.539062 73.0625 -46.5 C 73.0625 -36.5 71.757812 -27.925781 69.15625 -20.78125 C 66.550781 -13.632812 62.800781 -8.164062 57.90625 -4.375 C 53.007812 -0.582031 47.082031 1.3125 40.125 1.3125 Z M 40.125 -9 C 44.707031 -9 48.613281 -10.488281 51.84375 -13.46875 C 55.070312 -16.445312 57.539062 -20.726562 59.25 -26.3125 C 60.957031 -31.894531 61.8125 -38.625 61.8125 -46.5 C 61.8125 -54.414062 60.957031 -61.1875 59.25 -66.8125 C 57.539062 -72.4375 55.070312 -76.738281 51.84375 -79.71875 C 48.613281 -82.695312 44.707031 -84.1875 40.125 -84.1875 C 35.539062 -84.1875 31.632812 -82.6875 28.40625 -79.6875 C 25.175781 -76.6875 22.707031 -72.382812 21 -66.78125 C 19.289062 -61.175781 18.4375 -54.414062 18.4375 -46.5 C 18.4375 -38.625 19.289062 -31.894531 21 -26.3125 C 22.707031 -20.726562 25.175781 -16.445312 28.40625 -13.46875 C 31.632812 -10.488281 35.539062 -9 40.125 -9 Z M 40.125 -9 "/></g></g></g></g></g></g><g fill="#fef5c8" fill-opacity="1"><g transform="translate(301.378191, 900.45991)"><g><path d="M 40.875 0 L 16.75 0 L 16.75 -16.375 L 39.9375 -16.375 C 45.976562 -16.375 51.03125 -17.457031 55.09375 -19.625 C 59.15625 -21.789062 62.207031 -25.113281 64.25 -29.59375 C 66.289062 -34.070312 67.3125 -39.75 67.3125 -46.625 C 67.3125 -53.457031 66.289062 -59.101562 64.25 -63.5625 C 62.207031 -68.019531 59.164062 -71.332031 55.125 -73.5 C 51.082031 -75.664062 46.0625 -76.75 40.0625 -76.75 L 16.3125 -76.75 L 16.3125 -93.125 L 41.1875 -93.125 C 50.5625 -93.125 58.613281 -91.257812 65.34375 -87.53125 C 72.070312 -83.800781 77.257812 -78.457031 80.90625 -71.5 C 84.550781 -64.539062 86.375 -56.25 86.375 -46.625 C 86.375 -36.957031 84.5625 -28.644531 80.9375 -21.6875 C 77.3125 -14.726562 72.09375 -9.375 65.28125 -5.625 C 58.46875 -1.875 50.332031 0 40.875 0 Z M 27.1875 -93.125 L 27.1875 0 L 8.0625 0 L 8.0625 -93.125 Z M 27.1875 -93.125 "/></g></g></g><g mask="url(#6c3b6bfc89)"><g transform="matrix(1, 0, 0, 1, 639, 777)"><g clip-path="url(#b2c76363ce)"><g fill="#dbc291" fill-opacity="1"><g transform="translate(0.415818, 123.459922)"><g><path d="M 40.125 1.3125 C 33.207031 1.3125 27.300781 -0.582031 22.40625 -4.375 C 17.507812 -8.164062 13.75 -13.625 11.125 -20.75 C 8.5 -27.875 7.1875 -36.457031 7.1875 -46.5 C 7.1875 -56.539062 8.5 -65.125 11.125 -72.25 C 13.75 -79.375 17.519531 -84.851562 22.4375 -88.6875 C 27.351562 -92.519531 33.25 -94.4375 40.125 -94.4375 C 47 -94.4375 52.90625 -92.519531 57.84375 -88.6875 C 62.78125 -84.851562 66.550781 -79.375 69.15625 -72.25 C 71.757812 -65.125 73.0625 -56.539062 73.0625 -46.5 C 73.0625 -36.5 71.757812 -27.925781 69.15625 -20.78125 C 66.550781 -13.632812 62.800781 -8.164062 57.90625 -4.375 C 53.007812 -0.582031 47.082031 1.3125 40.125 1.3125 Z M 40.125 -9 C 44.707031 -9 48.613281 -10.488281 51.84375 -13.46875 C 55.070312 -16.445312 57.539062 -20.726562 59.25 -26.3125 C 60.957031 -31.894531 61.8125 -38.625 61.8125 -46.5 C 61.8125 -54.414062 60.957031 -61.1875 59.25 -66.8125 C 57.539062 -72.4375 55.070312 -76.738281 51.84375 -79.71875 C 48.613281 -82.695312 44.707031 -84.1875 40.125 -84.1875 C 35.539062 -84.1875 31.632812 -82.6875 28.40625 -79.6875 C 25.175781 -76.6875 22.707031 -72.382812 21 -66.78125 C 19.289062 -61.175781 18.4375 -54.414062 18.4375 -46.5 C 18.4375 -38.625 19.289062 -31.894531 21 -26.3125 C 22.707031 -20.726562 25.175781 -16.445312 28.40625 -13.46875 C 31.632812 -10.488281 35.539062 -9 40.125 -9 Z M 40.125 -9 "/></g></g></g></g></g></g><g mask="url(#4fd1248379)"><g transform="matrix(1, 0, 0, 1, 475, 777)"><g clip-path="url(#c311b64539)"><g fill="#fef5c8" fill-opacity="1"><g transform="translate(0.756399, 123.459922)"><g><path d="M 39.8125 0 L 17.3125 0 L 17.3125 -10.375 L 39.0625 -10.375 C 46.644531 -10.375 52.9375 -11.832031 57.9375 -14.75 C 62.9375 -17.664062 66.664062 -21.84375 69.125 -27.28125 C 71.582031 -32.71875 72.8125 -39.207031 72.8125 -46.75 C 72.8125 -54.207031 71.59375 -60.625 69.15625 -66 C 66.71875 -71.375 63.09375 -75.507812 58.28125 -78.40625 C 53.46875 -81.300781 47.4375 -82.75 40.1875 -82.75 L 16.8125 -82.75 L 16.8125 -93.125 L 41 -93.125 C 50.082031 -93.125 57.84375 -91.269531 64.28125 -87.5625 C 70.71875 -83.851562 75.65625 -78.53125 79.09375 -71.59375 C 82.53125 -64.65625 84.25 -56.375 84.25 -46.75 C 84.25 -37.039062 82.519531 -28.695312 79.0625 -21.71875 C 75.601562 -14.738281 70.5625 -9.375 63.9375 -5.625 C 57.3125 -1.875 49.269531 0 39.8125 0 Z M 22.5625 -93.125 L 22.5625 0 L 10.8125 0 L 10.8125 -93.125 Z M 22.5625 -93.125 "/></g></g></g></g></g></g><g mask="url(#59c84e6291)"><g transform="matrix(1, 0, 0, 1, 797, 777)"><g clip-path="url(#674111c8c2)"><g fill="#dbc291" fill-opacity="1"><g transform="translate(0.481527, 123.459922)"><g><path d="M 40.125 1.3125 C 33.207031 1.3125 27.300781 -0.582031 22.40625 -4.375 C 17.507812 -8.164062 13.75 -13.625 11.125 -20.75 C 8.5 -27.875 7.1875 -36.457031 7.1875 -46.5 C 7.1875 -56.539062 8.5 -65.125 11.125 -72.25 C 13.75 -79.375 17.519531 -84.851562 22.4375 -88.6875 C 27.351562 -92.519531 33.25 -94.4375 40.125 -94.4375 C 47 -94.4375 52.90625 -92.519531 57.84375 -88.6875 C 62.78125 -84.851562 66.550781 -79.375 69.15625 -72.25 C 71.757812 -65.125 73.0625 -56.539062 73.0625 -46.5 C 73.0625 -36.5 71.757812 -27.925781 69.15625 -20.78125 C 66.550781 -13.632812 62.800781 -8.164062 57.90625 -4.375 C 53.007812 -0.582031 47.082031 1.3125 40.125 1.3125 Z M 40.125 -9 C 44.707031 -9 48.613281 -10.488281 51.84375 -13.46875 C 55.070312 -16.445312 57.539062 -20.726562 59.25 -26.3125 C 60.957031 -31.894531 61.8125 -38.625 61.8125 -46.5 C 61.8125 -54.414062 60.957031 -61.1875 59.25 -66.8125 C 57.539062 -72.4375 55.070312 -76.738281 51.84375 -79.71875 C 48.613281 -82.695312 44.707031 -84.1875 40.125 -84.1875 C 35.539062 -84.1875 31.632812 -82.6875 28.40625 -79.6875 C 25.175781 -76.6875 22.707031 -72.382812 21 -66.78125 C 19.289062 -61.175781 18.4375 -54.414062 18.4375 -46.5 C 18.4375 -38.625 19.289062 -31.894531 21 -26.3125 C 22.707031 -20.726562 25.175781 -16.445312 28.40625 -13.46875 C 31.632812 -10.488281 35.539062 -9 40.125 -9 Z M 40.125 -9 "/></g></g></g></g></g></g><g mask="url(#81b19aa021)"><g transform="matrix(1, 0, 0, 1, 966, 777)"><g clip-path="url(#455c7caee3)"><g fill="#fef5c8" fill-opacity="1"><g transform="translate(0.0784072, 123.459922)"><g><path d="M 39.8125 0 L 17.3125 0 L 17.3125 -10.375 L 39.0625 -10.375 C 46.644531 -10.375 52.9375 -11.832031 57.9375 -14.75 C 62.9375 -17.664062 66.664062 -21.84375 69.125 -27.28125 C 71.582031 -32.71875 72.8125 -39.207031 72.8125 -46.75 C 72.8125 -54.207031 71.59375 -60.625 69.15625 -66 C 66.71875 -71.375 63.09375 -75.507812 58.28125 -78.40625 C 53.46875 -81.300781 47.4375 -82.75 40.1875 -82.75 L 16.8125 -82.75 L 16.8125 -93.125 L 41 -93.125 C 50.082031 -93.125 57.84375 -91.269531 64.28125 -87.5625 C 70.71875 -83.851562 75.65625 -78.53125 79.09375 -71.59375 C 82.53125 -64.65625 84.25 -56.375 84.25 -46.75 C 84.25 -37.039062 82.519531 -28.695312 79.0625 -21.71875 C 75.601562 -14.738281 70.5625 -9.375 63.9375 -5.625 C 57.3125 -1.875 49.269531 0 39.8125 0 Z M 22.5625 -93.125 L 22.5625 0 L 10.8125 0 L 10.8125 -93.125 Z M 22.5625 -93.125 "/></g></g></g></g></g></g><g mask="url(#9a026e7286)"><g transform="matrix(1, 0, 0, 1, 1129, 777)"><g clip-path="url(#8b45255e7f)"><g fill="#dbc291" fill-opacity="1"><g transform="translate(0.737827, 123.459922)"><g><path d="M 40.125 1.3125 C 33.207031 1.3125 27.300781 -0.582031 22.40625 -4.375 C 17.507812 -8.164062 13.75 -13.625 11.125 -20.75 C 8.5 -27.875 7.1875 -36.457031 7.1875 -46.5 C 7.1875 -56.539062 8.5 -65.125 11.125 -72.25 C 13.75 -79.375 17.519531 -84.851562 22.4375 -88.6875 C 27.351562 -92.519531 33.25 -94.4375 40.125 -94.4375 C 47 -94.4375 52.90625 -92.519531 57.84375 -88.6875 C 62.78125 -84.851562 66.550781 -79.375 69.15625 -72.25 C 71.757812 -65.125 73.0625 -56.539062 73.0625 -46.5 C 73.0625 -36.5 71.757812 -27.925781 69.15625 -20.78125 C 66.550781 -13.632812 62.800781 -8.164062 57.90625 -4.375 C 53.007812 -0.582031 47.082031 1.3125 40.125 1.3125 Z M 40.125 -9 C 44.707031 -9 48.613281 -10.488281 51.84375 -13.46875 C 55.070312 -16.445312 57.539062 -20.726562 59.25 -26.3125 C 60.957031 -31.894531 61.8125 -38.625 61.8125 -46.5 C 61.8125 -54.414062 60.957031 -61.1875 59.25 -66.8125 C 57.539062 -72.4375 55.070312 -76.738281 51.84375 -79.71875 C 48.613281 -82.695312 44.707031 -84.1875 40.125 -84.1875 C 35.539062 -84.1875 31.632812 -82.6875 28.40625 -79.6875 C 25.175781 -76.6875 22.707031 -72.382812 21 -66.78125 C 19.289062 -61.175781 18.4375 -54.414062 18.4375 -46.5 C 18.4375 -38.625 19.289062 -31.894531 21 -26.3125 C 22.707031 -20.726562 25.175781 -16.445312 28.40625 -13.46875 C 31.632812 -10.488281 35.539062 -9 40.125 -9 Z M 40.125 -9 "/></g></g></g></g></g></g><g mask="url(#6e2f89556e)"><g transform="matrix(1, 0, 0, 1, 1287, 777)"><g clip-path="url(#92dfb777bb)"><g fill="#dbc291" fill-opacity="1"><g transform="translate(0.803477, 123.459922)"><g><path d="M 40.125 1.3125 C 33.207031 1.3125 27.300781 -0.582031 22.40625 -4.375 C 17.507812 -8.164062 13.75 -13.625 11.125 -20.75 C 8.5 -27.875 7.1875 -36.457031 7.1875 -46.5 C 7.1875 -56.539062 8.5 -65.125 11.125 -72.25 C 13.75 -79.375 17.519531 -84.851562 22.4375 -88.6875 C 27.351562 -92.519531 33.25 -94.4375 40.125 -94.4375 C 47 -94.4375 52.90625 -92.519531 57.84375 -88.6875 C 62.78125 -84.851562 66.550781 -79.375 69.15625 -72.25 C 71.757812 -65.125 73.0625 -56.539062 73.0625 -46.5 C 73.0625 -36.5 71.757812 -27.925781 69.15625 -20.78125 C 66.550781 -13.632812 62.800781 -8.164062 57.90625 -4.375 C 53.007812 -0.582031 47.082031 1.3125 40.125 1.3125 Z M 40.125 -9 C 44.707031 -9 48.613281 -10.488281 51.84375 -13.46875 C 55.070312 -16.445312 57.539062 -20.726562 59.25 -26.3125 C 60.957031 -31.894531 61.8125 -38.625 61.8125 -46.5 C 61.8125 -54.414062 60.957031 -61.1875 59.25 -66.8125 C 57.539062 -72.4375 55.070312 -76.738281 51.84375 -79.71875 C 48.613281 -82.695312 44.707031 -84.1875 40.125 -84.1875 C 35.539062 -84.1875 31.632812 -82.6875 28.40625 -79.6875 C 25.175781 -76.6875 22.707031 -72.382812 21 -66.78125 C 19.289062 -61.175781 18.4375 -54.414062 18.4375 -46.5 C 18.4375 -38.625 19.289062 -31.894531 21 -26.3125 C 22.707031 -20.726562 25.175781 -16.445312 28.40625 -13.46875 C 31.632812 -10.488281 35.539062 -9 40.125 -9 Z M 40.125 -9 "/></g></g></g></g></g></g><g mask="url(#e470119d3f)"><g transform="matrix(1, 0, 0, 1, 150, 986)"><g clip-path="url(#1690a5847b)"><g fill="#dbc291" fill-opacity="1"><g transform="translate(0.00002043, 123.879943)"><g><path d="M 40.125 1.3125 C 33.207031 1.3125 27.300781 -0.582031 22.40625 -4.375 C 17.507812 -8.164062 13.75 -13.625 11.125 -20.75 C 8.5 -27.875 7.1875 -36.457031 7.1875 -46.5 C 7.1875 -56.539062 8.5 -65.125 11.125 -72.25 C 13.75 -79.375 17.519531 -84.851562 22.4375 -88.6875 C 27.351562 -92.519531 33.25 -94.4375 40.125 -94.4375 C 47 -94.4375 52.90625 -92.519531 57.84375 -88.6875 C 62.78125 -84.851562 66.550781 -79.375 69.15625 -72.25 C 71.757812 -65.125 73.0625 -56.539062 73.0625 -46.5 C 73.0625 -36.5 71.757812 -27.925781 69.15625 -20.78125 C 66.550781 -13.632812 62.800781 -8.164062 57.90625 -4.375 C 53.007812 -0.582031 47.082031 1.3125 40.125 1.3125 Z M 40.125 -9 C 44.707031 -9 48.613281 -10.488281 51.84375 -13.46875 C 55.070312 -16.445312 57.539062 -20.726562 59.25 -26.3125 C 60.957031 -31.894531 61.8125 -38.625 61.8125 -46.5 C 61.8125 -54.414062 60.957031 -61.1875 59.25 -66.8125 C 57.539062 -72.4375 55.070312 -76.738281 51.84375 -79.71875 C 48.613281 -82.695312 44.707031 -84.1875 40.125 -84.1875 C 35.539062 -84.1875 31.632812 -82.6875 28.40625 -79.6875 C 25.175781 -76.6875 22.707031 -72.382812 21 -66.78125 C 19.289062 -61.175781 18.4375 -54.414062 18.4375 -46.5 C 18.4375 -38.625 19.289062 -31.894531 21 -26.3125 C 22.707031 -20.726562 25.175781 -16.445312 28.40625 -13.46875 C 31.632812 -10.488281 35.539062 -9 40.125 -9 Z M 40.125 -9 "/></g></g></g></g></g></g><g fill="#fef5c8" fill-opacity="1"><g transform="translate(308.409441, 1109.879932)"><g><path d="M 8.0625 0 L 8.0625 -93.125 L 71.4375 -93.125 L 71.4375 -77.125 L 27.1875 -77.125 L 27.1875 -54.875 L 68.0625 -54.875 L 68.0625 -39.1875 L 27.1875 -39.1875 L 27.1875 -16 L 71.5 -16 L 71.5 0 Z M 8.0625 0 "/></g></g></g><g mask="url(#8b12f63342)"><g transform="matrix(1, 0, 0, 1, 639, 986)"><g clip-path="url(#21a5b69034)"><g fill="#dbc291" fill-opacity="1"><g transform="translate(0.415818, 123.879943)"><g><path d="M 40.125 1.3125 C 33.207031 1.3125 27.300781 -0.582031 22.40625 -4.375 C 17.507812 -8.164062 13.75 -13.625 11.125 -20.75 C 8.5 -27.875 7.1875 -36.457031 7.1875 -46.5 C 7.1875 -56.539062 8.5 -65.125 11.125 -72.25 C 13.75 -79.375 17.519531 -84.851562 22.4375 -88.6875 C 27.351562 -92.519531 33.25 -94.4375 40.125 -94.4375 C 47 -94.4375 52.90625 -92.519531 57.84375 -88.6875 C 62.78125 -84.851562 66.550781 -79.375 69.15625 -72.25 C 71.757812 -65.125 73.0625 -56.539062 73.0625 -46.5 C 73.0625 -36.5 71.757812 -27.925781 69.15625 -20.78125 C 66.550781 -13.632812 62.800781 -8.164062 57.90625 -4.375 C 53.007812 -0.582031 47.082031 1.3125 40.125 1.3125 Z M 40.125 -9 C 44.707031 -9 48.613281 -10.488281 51.84375 -13.46875 C 55.070312 -16.445312 57.539062 -20.726562 59.25 -26.3125 C 60.957031 -31.894531 61.8125 -38.625 61.8125 -46.5 C 61.8125 -54.414062 60.957031 -61.1875 59.25 -66.8125 C 57.539062 -72.4375 55.070312 -76.738281 51.84375 -79.71875 C 48.613281 -82.695312 44.707031 -84.1875 40.125 -84.1875 C 35.539062 -84.1875 31.632812 -82.6875 28.40625 -79.6875 C 25.175781 -76.6875 22.707031 -72.382812 21 -66.78125 C 19.289062 -61.175781 18.4375 -54.414062 18.4375 -46.5 C 18.4375 -38.625 19.289062 -31.894531 21 -26.3125 C 22.707031 -20.726562 25.175781 -16.445312 28.40625 -13.46875 C 31.632812 -10.488281 35.539062 -9 40.125 -9 Z M 40.125 -9 "/></g></g></g></g></g></g><g mask="url(#3860ea38dd)"><g transform="matrix(1, 0, 0, 1, 483, 986)"><g clip-path="url(#8f5364c6e0)"><g fill="#fef5c8" fill-opacity="1"><g transform="translate(0.318859, 123.879943)"><g><path d="M 10.8125 0 L 10.8125 -93.125 L 68.375 -93.125 L 68.375 -82.75 L 22.5625 -82.75 L 22.5625 -52.375 L 65.1875 -52.375 L 65.1875 -41.9375 L 22.5625 -41.9375 L 22.5625 -10.375 L 68.8125 -10.375 L 68.8125 0 Z M 10.8125 0 "/></g></g></g></g></g></g><g mask="url(#0f575d1f27)"><g transform="matrix(1, 0, 0, 1, 797, 986)"><g clip-path="url(#bb37ccfbb3)"><g fill="#dbc291" fill-opacity="1"><g transform="translate(0.481527, 123.879943)"><g><path d="M 40.125 1.3125 C 33.207031 1.3125 27.300781 -0.582031 22.40625 -4.375 C 17.507812 -8.164062 13.75 -13.625 11.125 -20.75 C 8.5 -27.875 7.1875 -36.457031 7.1875 -46.5 C 7.1875 -56.539062 8.5 -65.125 11.125 -72.25 C 13.75 -79.375 17.519531 -84.851562 22.4375 -88.6875 C 27.351562 -92.519531 33.25 -94.4375 40.125 -94.4375 C 47 -94.4375 52.90625 -92.519531 57.84375 -88.6875 C 62.78125 -84.851562 66.550781 -79.375 69.15625 -72.25 C 71.757812 -65.125 73.0625 -56.539062 73.0625 -46.5 C 73.0625 -36.5 71.757812 -27.925781 69.15625 -20.78125 C 66.550781 -13.632812 62.800781 -8.164062 57.90625 -4.375 C 53.007812 -0.582031 47.082031 1.3125 40.125 1.3125 Z M 40.125 -9 C 44.707031 -9 48.613281 -10.488281 51.84375 -13.46875 C 55.070312 -16.445312 57.539062 -20.726562 59.25 -26.3125 C 60.957031 -31.894531 61.8125 -38.625 61.8125 -46.5 C 61.8125 -54.414062 60.957031 -61.1875 59.25 -66.8125 C 57.539062 -72.4375 55.070312 -76.738281 51.84375 -79.71875 C 48.613281 -82.695312 44.707031 -84.1875 40.125 -84.1875 C 35.539062 -84.1875 31.632812 -82.6875 28.40625 -79.6875 C 25.175781 -76.6875 22.707031 -72.382812 21 -66.78125 C 19.289062 -61.175781 18.4375 -54.414062 18.4375 -46.5 C 18.4375 -38.625 19.289062 -31.894531 21 -26.3125 C 22.707031 -20.726562 25.175781 -16.445312 28.40625 -13.46875 C 31.632812 -10.488281 35.539062 -9 40.125 -9 Z M 40.125 -9 "/></g></g></g></g></g></g><g mask="url(#699d967b6f)"><g transform="matrix(1, 0, 0, 1, 973, 986)"><g clip-path="url(#ac949a875b)"><g fill="#fef5c8" fill-opacity="1"><g transform="translate(0.640867, 123.879943)"><g><path d="M 10.8125 0 L 10.8125 -93.125 L 68.375 -93.125 L 68.375 -82.75 L 22.5625 -82.75 L 22.5625 -52.375 L 65.1875 -52.375 L 65.1875 -41.9375 L 22.5625 -41.9375 L 22.5625 -10.375 L 68.8125 -10.375 L 68.8125 0 Z M 10.8125 0 "/></g></g></g></g></g></g><g mask="url(#ce4e396f39)"><g transform="matrix(1, 0, 0, 1, 1129, 986)"><g clip-path="url(#1fbe717927)"><g fill="#dbc291" fill-opacity="1"><g transform="translate(0.737827, 123.879943)"><g><path d="M 40.125 1.3125 C 33.207031 1.3125 27.300781 -0.582031 22.40625 -4.375 C 17.507812 -8.164062 13.75 -13.625 11.125 -20.75 C 8.5 -27.875 7.1875 -36.457031 7.1875 -46.5 C 7.1875 -56.539062 8.5 -65.125 11.125 -72.25 C 13.75 -79.375 17.519531 -84.851562 22.4375 -88.6875 C 27.351562 -92.519531 33.25 -94.4375 40.125 -94.4375 C 47 -94.4375 52.90625 -92.519531 57.84375 -88.6875 C 62.78125 -84.851562 66.550781 -79.375 69.15625 -72.25 C 71.757812 -65.125 73.0625 -56.539062 73.0625 -46.5 C 73.0625 -36.5 71.757812 -27.925781 69.15625 -20.78125 C 66.550781 -13.632812 62.800781 -8.164062 57.90625 -4.375 C 53.007812 -0.582031 47.082031 1.3125 40.125 1.3125 Z M 40.125 -9 C 44.707031 -9 48.613281 -10.488281 51.84375 -13.46875 C 55.070312 -16.445312 57.539062 -20.726562 59.25 -26.3125 C 60.957031 -31.894531 61.8125 -38.625 61.8125 -46.5 C 61.8125 -54.414062 60.957031 -61.1875 59.25 -66.8125 C 57.539062 -72.4375 55.070312 -76.738281 51.84375 -79.71875 C 48.613281 -82.695312 44.707031 -84.1875 40.125 -84.1875 C 35.539062 -84.1875 31.632812 -82.6875 28.40625 -79.6875 C 25.175781 -76.6875 22.707031 -72.382812 21 -66.78125 C 19.289062 -61.175781 18.4375 -54.414062 18.4375 -46.5 C 18.4375 -38.625 19.289062 -31.894531 21 -26.3125 C 22.707031 -20.726562 25.175781 -16.445312 28.40625 -13.46875 C 31.632812 -10.488281 35.539062 -9 40.125 -9 Z M 40.125 -9 "/></g></g></g></g></g></g><g mask="url(#af56a951c9)"><g transform="matrix(1, 0, 0, 1, 1289, 986)"><g clip-path="url(#f89cb19d8d)"><g fill="#fef5c8" fill-opacity="1"><g transform="translate(0.772227, 123.879943)"><g><path d="M 10.8125 0 L 10.8125 -93.125 L 68.375 -93.125 L 68.375 -82.75 L 22.5625 -82.75 L 22.5625 -52.375 L 65.1875 -52.375 L 65.1875 -41.9375 L 22.5625 -41.9375 L 22.5625 -10.375 L 68.8125 -10.375 L 68.8125 0 Z M 10.8125 0 "/></g></g></g></g></g></g><g mask="url(#781a3e4a23)"><g transform="matrix(1, 0, 0, 1, 150, 1196)"><g clip-path="url(#45f04fd96e)"><g fill="#dbc291" fill-opacity="1"><g transform="translate(0.00002043, 123.299905)"><g><path d="M 40.125 1.3125 C 33.207031 1.3125 27.300781 -0.582031 22.40625 -4.375 C 17.507812 -8.164062 13.75 -13.625 11.125 -20.75 C 8.5 -27.875 7.1875 -36.457031 7.1875 -46.5 C 7.1875 -56.539062 8.5 -65.125 11.125 -72.25 C 13.75 -79.375 17.519531 -84.851562 22.4375 -88.6875 C 27.351562 -92.519531 33.25 -94.4375 40.125 -94.4375 C 47 -94.4375 52.90625 -92.519531 57.84375 -88.6875 C 62.78125 -84.851562 66.550781 -79.375 69.15625 -72.25 C 71.757812 -65.125 73.0625 -56.539062 73.0625 -46.5 C 73.0625 -36.5 71.757812 -27.925781 69.15625 -20.78125 C 66.550781 -13.632812 62.800781 -8.164062 57.90625 -4.375 C 53.007812 -0.582031 47.082031 1.3125 40.125 1.3125 Z M 40.125 -9 C 44.707031 -9 48.613281 -10.488281 51.84375 -13.46875 C 55.070312 -16.445312 57.539062 -20.726562 59.25 -26.3125 C 60.957031 -31.894531 61.8125 -38.625 61.8125 -46.5 C 61.8125 -54.414062 60.957031 -61.1875 59.25 -66.8125 C 57.539062 -72.4375 55.070312 -76.738281 51.84375 -79.71875 C 48.613281 -82.695312 44.707031 -84.1875 40.125 -84.1875 C 35.539062 -84.1875 31.632812 -82.6875 28.40625 -79.6875 C 25.175781 -76.6875 22.707031 -72.382812 21 -66.78125 C 19.289062 -61.175781 18.4375 -54.414062 18.4375 -46.5 C 18.4375 -38.625 19.289062 -31.894531 21 -26.3125 C 22.707031 -20.726562 25.175781 -16.445312 28.40625 -13.46875 C 31.632812 -10.488281 35.539062 -9 40.125 -9 Z M 40.125 -9 "/></g></g></g></g></g></g><g fill="#fef5c8" fill-opacity="1"><g transform="translate(288.190703, 1319.299906)"><g><path d="M 8.0625 0 L 8.0625 -93.125 L 37.125 -93.125 L 52.25 -50.25 C 52.875 -48.25 53.601562 -45.695312 54.4375 -42.59375 C 55.269531 -39.488281 56.113281 -36.164062 56.96875 -32.625 C 57.820312 -29.082031 58.613281 -25.65625 59.34375 -22.34375 C 60.070312 -19.03125 60.6875 -16.164062 61.1875 -13.75 L 57.1875 -13.75 C 57.6875 -16.125 58.300781 -18.957031 59.03125 -22.25 C 59.757812 -25.539062 60.550781 -28.96875 61.40625 -32.53125 C 62.257812 -36.09375 63.09375 -39.4375 63.90625 -42.5625 C 64.71875 -45.6875 65.457031 -48.25 66.125 -50.25 L 81 -93.125 L 110.125 -93.125 L 110.125 0 L 91 0 L 91 -44 C 91 -46.039062 91.03125 -48.5625 91.09375 -51.5625 C 91.15625 -54.5625 91.238281 -57.789062 91.34375 -61.25 C 91.445312 -64.707031 91.539062 -68.195312 91.625 -71.71875 C 91.707031 -75.238281 91.769531 -78.5625 91.8125 -81.6875 L 93.25 -81.6875 C 92.414062 -78.269531 91.507812 -74.75 90.53125 -71.125 C 89.550781 -67.5 88.570312 -63.96875 87.59375 -60.53125 C 86.613281 -57.09375 85.695312 -53.945312 84.84375 -51.09375 C 83.988281 -48.238281 83.25 -45.875 82.625 -44 L 67.125 0 L 51.125 0 L 35.4375 -44 C 34.769531 -45.875 34.007812 -48.226562 33.15625 -51.0625 C 32.300781 -53.894531 31.375 -57.019531 30.375 -60.4375 C 29.375 -63.851562 28.375 -67.375 27.375 -71 C 26.375 -74.625 25.414062 -78.1875 24.5 -81.6875 L 26.25 -81.6875 C 26.289062 -78.6875 26.351562 -75.4375 26.4375 -71.9375 C 26.519531 -68.4375 26.601562 -64.9375 26.6875 -61.4375 C 26.769531 -57.9375 26.851562 -54.675781 26.9375 -51.65625 C 27.019531 -48.632812 27.0625 -46.082031 27.0625 -44 L 27.0625 0 Z M 8.0625 0 "/></g></g></g><g mask="url(#294b83cb6f)"><g transform="matrix(1, 0, 0, 1, 639, 1196)"><g clip-path="url(#85db5d1331)"><g fill="#dbc291" fill-opacity="1"><g transform="translate(0.415818, 123.299905)"><g><path d="M 40.125 1.3125 C 33.207031 1.3125 27.300781 -0.582031 22.40625 -4.375 C 17.507812 -8.164062 13.75 -13.625 11.125 -20.75 C 8.5 -27.875 7.1875 -36.457031 7.1875 -46.5 C 7.1875 -56.539062 8.5 -65.125 11.125 -72.25 C 13.75 -79.375 17.519531 -84.851562 22.4375 -88.6875 C 27.351562 -92.519531 33.25 -94.4375 40.125 -94.4375 C 47 -94.4375 52.90625 -92.519531 57.84375 -88.6875 C 62.78125 -84.851562 66.550781 -79.375 69.15625 -72.25 C 71.757812 -65.125 73.0625 -56.539062 73.0625 -46.5 C 73.0625 -36.5 71.757812 -27.925781 69.15625 -20.78125 C 66.550781 -13.632812 62.800781 -8.164062 57.90625 -4.375 C 53.007812 -0.582031 47.082031 1.3125 40.125 1.3125 Z M 40.125 -9 C 44.707031 -9 48.613281 -10.488281 51.84375 -13.46875 C 55.070312 -16.445312 57.539062 -20.726562 59.25 -26.3125 C 60.957031 -31.894531 61.8125 -38.625 61.8125 -46.5 C 61.8125 -54.414062 60.957031 -61.1875 59.25 -66.8125 C 57.539062 -72.4375 55.070312 -76.738281 51.84375 -79.71875 C 48.613281 -82.695312 44.707031 -84.1875 40.125 -84.1875 C 35.539062 -84.1875 31.632812 -82.6875 28.40625 -79.6875 C 25.175781 -76.6875 22.707031 -72.382812 21 -66.78125 C 19.289062 -61.175781 18.4375 -54.414062 18.4375 -46.5 C 18.4375 -38.625 19.289062 -31.894531 21 -26.3125 C 22.707031 -20.726562 25.175781 -16.445312 28.40625 -13.46875 C 31.632812 -10.488281 35.539062 -9 40.125 -9 Z M 40.125 -9 "/></g></g></g></g></g></g><g mask="url(#28ec37598c)"><g transform="matrix(1, 0, 0, 1, 464, 1196)"><g clip-path="url(#04aab4435a)"><g fill="#fef5c8" fill-opacity="1"><g transform="translate(0.3189, 123.299905)"><g><path d="M 10.8125 0 L 10.8125 -93.125 L 27.3125 -93.125 L 50.4375 -34.0625 C 50.976562 -32.6875 51.59375 -30.976562 52.28125 -28.9375 C 52.96875 -26.894531 53.707031 -24.707031 54.5 -22.375 C 55.289062 -20.039062 56.039062 -17.726562 56.75 -15.4375 C 57.457031 -13.144531 58.0625 -11.0625 58.5625 -9.1875 L 55.9375 -9.1875 C 56.476562 -10.976562 57.101562 -13 57.8125 -15.25 C 58.519531 -17.5 59.257812 -19.800781 60.03125 -22.15625 C 60.800781 -24.507812 61.550781 -26.738281 62.28125 -28.84375 C 63.007812 -30.945312 63.644531 -32.6875 64.1875 -34.0625 L 86.9375 -93.125 L 103.5 -93.125 L 103.5 0 L 91.9375 0 L 91.9375 -53.375 C 91.9375 -55.289062 91.945312 -57.46875 91.96875 -59.90625 C 91.988281 -62.34375 92.03125 -64.875 92.09375 -67.5 C 92.15625 -70.125 92.21875 -72.800781 92.28125 -75.53125 C 92.34375 -78.257812 92.394531 -80.894531 92.4375 -83.4375 L 93.5625 -83.4375 C 92.6875 -80.5625 91.75 -77.664062 90.75 -74.75 C 89.75 -71.832031 88.789062 -69.019531 87.875 -66.3125 C 86.957031 -63.601562 86.09375 -61.144531 85.28125 -58.9375 C 84.46875 -56.726562 83.769531 -54.875 83.1875 -53.375 L 62.1875 0 L 52.125 0 L 30.8125 -53.375 C 30.226562 -54.832031 29.550781 -56.644531 28.78125 -58.8125 C 28.007812 -60.976562 27.15625 -63.394531 26.21875 -66.0625 C 25.28125 -68.726562 24.300781 -71.539062 23.28125 -74.5 C 22.257812 -77.457031 21.226562 -80.4375 20.1875 -83.4375 L 21.5 -83.4375 C 21.582031 -81.101562 21.65625 -78.613281 21.71875 -75.96875 C 21.78125 -73.320312 21.832031 -70.65625 21.875 -67.96875 C 21.914062 -65.28125 21.957031 -62.6875 22 -60.1875 C 22.039062 -57.6875 22.0625 -55.414062 22.0625 -53.375 L 22.0625 0 Z M 10.8125 0 "/></g></g></g></g></g></g><g mask="url(#1c347ac409)"><g transform="matrix(1, 0, 0, 1, 780, 1196)"><g clip-path="url(#a9dbff73aa)"><g fill="#fef5c8" fill-opacity="1"><g transform="translate(0.450201, 123.299905)"><g><path d="M 10.8125 0 L 10.8125 -93.125 L 27.3125 -93.125 L 50.4375 -34.0625 C 50.976562 -32.6875 51.59375 -30.976562 52.28125 -28.9375 C 52.96875 -26.894531 53.707031 -24.707031 54.5 -22.375 C 55.289062 -20.039062 56.039062 -17.726562 56.75 -15.4375 C 57.457031 -13.144531 58.0625 -11.0625 58.5625 -9.1875 L 55.9375 -9.1875 C 56.476562 -10.976562 57.101562 -13 57.8125 -15.25 C 58.519531 -17.5 59.257812 -19.800781 60.03125 -22.15625 C 60.800781 -24.507812 61.550781 -26.738281 62.28125 -28.84375 C 63.007812 -30.945312 63.644531 -32.6875 64.1875 -34.0625 L 86.9375 -93.125 L 103.5 -93.125 L 103.5 0 L 91.9375 0 L 91.9375 -53.375 C 91.9375 -55.289062 91.945312 -57.46875 91.96875 -59.90625 C 91.988281 -62.34375 92.03125 -64.875 92.09375 -67.5 C 92.15625 -70.125 92.21875 -72.800781 92.28125 -75.53125 C 92.34375 -78.257812 92.394531 -80.894531 92.4375 -83.4375 L 93.5625 -83.4375 C 92.6875 -80.5625 91.75 -77.664062 90.75 -74.75 C 89.75 -71.832031 88.789062 -69.019531 87.875 -66.3125 C 86.957031 -63.601562 86.09375 -61.144531 85.28125 -58.9375 C 84.46875 -56.726562 83.769531 -54.875 83.1875 -53.375 L 62.1875 0 L 52.125 0 L 30.8125 -53.375 C 30.226562 -54.832031 29.550781 -56.644531 28.78125 -58.8125 C 28.007812 -60.976562 27.15625 -63.394531 26.21875 -66.0625 C 25.28125 -68.726562 24.300781 -71.539062 23.28125 -74.5 C 22.257812 -77.457031 21.226562 -80.4375 20.1875 -83.4375 L 21.5 -83.4375 C 21.582031 -81.101562 21.65625 -78.613281 21.71875 -75.96875 C 21.78125 -73.320312 21.832031 -70.65625 21.875 -67.96875 C 21.914062 -65.28125 21.957031 -62.6875 22 -60.1875 C 22.039062 -57.6875 22.0625 -55.414062 22.0625 -53.375 L 22.0625 0 Z M 10.8125 0 "/></g></g></g></g></g></g><g mask="url(#1fc6517d76)"><g transform="matrix(1, 0, 0, 1, 954, 1196)"><g clip-path="url(#3bb5832591)"><g fill="#fef5c8" fill-opacity="1"><g transform="translate(0.640908, 123.299905)"><g><path d="M 10.8125 0 L 10.8125 -93.125 L 27.3125 -93.125 L 50.4375 -34.0625 C 50.976562 -32.6875 51.59375 -30.976562 52.28125 -28.9375 C 52.96875 -26.894531 53.707031 -24.707031 54.5 -22.375 C 55.289062 -20.039062 56.039062 -17.726562 56.75 -15.4375 C 57.457031 -13.144531 58.0625 -11.0625 58.5625 -9.1875 L 55.9375 -9.1875 C 56.476562 -10.976562 57.101562 -13 57.8125 -15.25 C 58.519531 -17.5 59.257812 -19.800781 60.03125 -22.15625 C 60.800781 -24.507812 61.550781 -26.738281 62.28125 -28.84375 C 63.007812 -30.945312 63.644531 -32.6875 64.1875 -34.0625 L 86.9375 -93.125 L 103.5 -93.125 L 103.5 0 L 91.9375 0 L 91.9375 -53.375 C 91.9375 -55.289062 91.945312 -57.46875 91.96875 -59.90625 C 91.988281 -62.34375 92.03125 -64.875 92.09375 -67.5 C 92.15625 -70.125 92.21875 -72.800781 92.28125 -75.53125 C 92.34375 -78.257812 92.394531 -80.894531 92.4375 -83.4375 L 93.5625 -83.4375 C 92.6875 -80.5625 91.75 -77.664062 90.75 -74.75 C 89.75 -71.832031 88.789062 -69.019531 87.875 -66.3125 C 86.957031 -63.601562 86.09375 -61.144531 85.28125 -58.9375 C 84.46875 -56.726562 83.769531 -54.875 83.1875 -53.375 L 62.1875 0 L 52.125 0 L 30.8125 -53.375 C 30.226562 -54.832031 29.550781 -56.644531 28.78125 -58.8125 C 28.007812 -60.976562 27.15625 -63.394531 26.21875 -66.0625 C 25.28125 -68.726562 24.300781 -71.539062 23.28125 -74.5 C 22.257812 -77.457031 21.226562 -80.4375 20.1875 -83.4375 L 21.5 -83.4375 C 21.582031 -81.101562 21.65625 -78.613281 21.71875 -75.96875 C 21.78125 -73.320312 21.832031 -70.65625 21.875 -67.96875 C 21.914062 -65.28125 21.957031 -62.6875 22 -60.1875 C 22.039062 -57.6875 22.0625 -55.414062 22.0625 -53.375 L 22.0625 0 Z M 10.8125 0 "/></g></g></g></g></g></g><g mask="url(#7682bfb6df)"><g transform="matrix(1, 0, 0, 1, 1129, 1196)"><g clip-path="url(#4b119b2c8a)"><g fill="#dbc291" fill-opacity="1"><g transform="translate(0.737827, 123.299905)"><g><path d="M 40.125 1.3125 C 33.207031 1.3125 27.300781 -0.582031 22.40625 -4.375 C 17.507812 -8.164062 13.75 -13.625 11.125 -20.75 C 8.5 -27.875 7.1875 -36.457031 7.1875 -46.5 C 7.1875 -56.539062 8.5 -65.125 11.125 -72.25 C 13.75 -79.375 17.519531 -84.851562 22.4375 -88.6875 C 27.351562 -92.519531 33.25 -94.4375 40.125 -94.4375 C 47 -94.4375 52.90625 -92.519531 57.84375 -88.6875 C 62.78125 -84.851562 66.550781 -79.375 69.15625 -72.25 C 71.757812 -65.125 73.0625 -56.539062 73.0625 -46.5 C 73.0625 -36.5 71.757812 -27.925781 69.15625 -20.78125 C 66.550781 -13.632812 62.800781 -8.164062 57.90625 -4.375 C 53.007812 -0.582031 47.082031 1.3125 40.125 1.3125 Z M 40.125 -9 C 44.707031 -9 48.613281 -10.488281 51.84375 -13.46875 C 55.070312 -16.445312 57.539062 -20.726562 59.25 -26.3125 C 60.957031 -31.894531 61.8125 -38.625 61.8125 -46.5 C 61.8125 -54.414062 60.957031 -61.1875 59.25 -66.8125 C 57.539062 -72.4375 55.070312 -76.738281 51.84375 -79.71875 C 48.613281 -82.695312 44.707031 -84.1875 40.125 -84.1875 C 35.539062 -84.1875 31.632812 -82.6875 28.40625 -79.6875 C 25.175781 -76.6875 22.707031 -72.382812 21 -66.78125 C 19.289062 -61.175781 18.4375 -54.414062 18.4375 -46.5 C 18.4375 -38.625 19.289062 -31.894531 21 -26.3125 C 22.707031 -20.726562 25.175781 -16.445312 28.40625 -13.46875 C 31.632812 -10.488281 35.539062 -9 40.125 -9 Z M 40.125 -9 "/></g></g></g></g></g></g><g mask="url(#cc77129d95)"><g transform="matrix(1, 0, 0, 1, 1270, 1196)"><g clip-path="url(#0ca75eaf59)"><g fill="#fef5c8" fill-opacity="1"><g transform="translate(0.77215, 123.299905)"><g><path d="M 10.8125 0 L 10.8125 -93.125 L 27.3125 -93.125 L 50.4375 -34.0625 C 50.976562 -32.6875 51.59375 -30.976562 52.28125 -28.9375 C 52.96875 -26.894531 53.707031 -24.707031 54.5 -22.375 C 55.289062 -20.039062 56.039062 -17.726562 56.75 -15.4375 C 57.457031 -13.144531 58.0625 -11.0625 58.5625 -9.1875 L 55.9375 -9.1875 C 56.476562 -10.976562 57.101562 -13 57.8125 -15.25 C 58.519531 -17.5 59.257812 -19.800781 60.03125 -22.15625 C 60.800781 -24.507812 61.550781 -26.738281 62.28125 -28.84375 C 63.007812 -30.945312 63.644531 -32.6875 64.1875 -34.0625 L 86.9375 -93.125 L 103.5 -93.125 L 103.5 0 L 91.9375 0 L 91.9375 -53.375 C 91.9375 -55.289062 91.945312 -57.46875 91.96875 -59.90625 C 91.988281 -62.34375 92.03125 -64.875 92.09375 -67.5 C 92.15625 -70.125 92.21875 -72.800781 92.28125 -75.53125 C 92.34375 -78.257812 92.394531 -80.894531 92.4375 -83.4375 L 93.5625 -83.4375 C 92.6875 -80.5625 91.75 -77.664062 90.75 -74.75 C 89.75 -71.832031 88.789062 -69.019531 87.875 -66.3125 C 86.957031 -63.601562 86.09375 -61.144531 85.28125 -58.9375 C 84.46875 -56.726562 83.769531 -54.875 83.1875 -53.375 L 62.1875 0 L 52.125 0 L 30.8125 -53.375 C 30.226562 -54.832031 29.550781 -56.644531 28.78125 -58.8125 C 28.007812 -60.976562 27.15625 -63.394531 26.21875 -66.0625 C 25.28125 -68.726562 24.300781 -71.539062 23.28125 -74.5 C 22.257812 -77.457031 21.226562 -80.4375 20.1875 -83.4375 L 21.5 -83.4375 C 21.582031 -81.101562 21.65625 -78.613281 21.71875 -75.96875 C 21.78125 -73.320312 21.832031 -70.65625 21.875 -67.96875 C 21.914062 -65.28125 21.957031 -62.6875 22 -60.1875 C 22.039062 -57.6875 22.0625 -55.414062 22.0625 -53.375 L 22.0625 0 Z M 10.8125 0 "/></g></g></g></g></g></g></svg>